<mxfile host="65bd71144e">
    <diagram id="ep1BKmo1rv0tTnjuWXjm" name="Page-1">
        <mxGraphModel dx="897" dy="917" grid="1" gridSize="10" guides="1" tooltips="1" connect="1" arrows="1" fold="1" page="1" pageScale="1" pageWidth="1169" pageHeight="827" background="none" math="0" shadow="0">
            <root>
                <mxCell id="0"/>
                <mxCell id="1" parent="0"/>
                <mxCell id="69" style="edgeStyle=elbowEdgeStyle;shape=connector;rounded=1;html=1;exitX=0.5;exitY=0;exitDx=0;exitDy=0;entryX=0.501;entryY=1.029;entryDx=0;entryDy=0;entryPerimeter=0;labelBackgroundColor=default;fontFamily=Helvetica;fontSize=11;fontColor=default;startArrow=ERoneToMany;startFill=0;endArrow=ERmandOne;endFill=0;strokeColor=default;" parent="1" source="12" target="25" edge="1">
                    <mxGeometry relative="1" as="geometry"/>
                </mxCell>
                <mxCell id="12" value="&amp;lt;&amp;lt;struct&amp;gt;&amp;gt;&lt;br&gt;&lt;b&gt;point&lt;/b&gt;" style="swimlane;fontStyle=0;align=center;verticalAlign=top;childLayout=stackLayout;horizontal=1;startSize=41;horizontalStack=0;resizeParent=1;resizeParentMax=0;resizeLast=0;collapsible=0;marginBottom=0;html=1;strokeColor=default;fillColor=none;" parent="1" vertex="1">
                    <mxGeometry x="340" y="380" width="240" height="420" as="geometry"/>
                </mxCell>
                <mxCell id="13" value="attributes" style="text;html=1;align=center;verticalAlign=middle;spacingLeft=4;spacingRight=4;overflow=hidden;rotatable=0;points=[[0,0.5],[1,0.5]];portConstraint=eastwest;strokeColor=default;" parent="12" vertex="1">
                    <mxGeometry y="41" width="240" height="20" as="geometry"/>
                </mxCell>
                <mxCell id="14" value="&lt;div&gt;*name: char&lt;/div&gt;&lt;div&gt;_type: point_type&lt;/div&gt;&lt;div&gt;get_value: function_pointer: char&lt;/div&gt;&lt;div&gt;set_value: function_pointer: bool&lt;/div&gt;&lt;div&gt;validate_set_value: function_pointer: bool&lt;/div&gt;&lt;div&gt;count: int&lt;/div&gt;&lt;div&gt;size: int&lt;/div&gt;&lt;div&gt;sf: int&lt;/div&gt;&lt;div&gt;*units: char&lt;/div&gt;&lt;div&gt;_access: access_type&lt;/div&gt;&lt;div&gt;_mandatory: mandatory_type&lt;/div&gt;&lt;div&gt;_static: static_type&lt;/div&gt;&lt;div&gt;*label: char&lt;/div&gt;&lt;div&gt;*desc: char&lt;/div&gt;&lt;div&gt;*detail: char&lt;/div&gt;&lt;div&gt;*notes: char&lt;/div&gt;&lt;div&gt;comments: TODO&lt;/div&gt;&lt;div&gt;symbols: TODO&lt;/div&gt;&lt;div&gt;*next: point&lt;/div&gt;" style="text;html=1;align=left;verticalAlign=middle;spacingLeft=4;spacingRight=4;overflow=hidden;rotatable=0;points=[[0,0.5],[1,0.5]];portConstraint=eastwest;strokeColor=default;" parent="12" vertex="1">
                    <mxGeometry y="61" width="240" height="279" as="geometry"/>
                </mxCell>
                <mxCell id="17" value="" style="line;strokeWidth=1;align=left;verticalAlign=middle;spacingTop=-1;spacingLeft=3;spacingRight=3;rotatable=0;labelPosition=right;points=[];portConstraint=eastwest;strokeColor=default;" parent="12" vertex="1">
                    <mxGeometry y="340" width="240" as="geometry"/>
                </mxCell>
                <mxCell id="18" value="operations" style="text;html=1;align=center;verticalAlign=middle;spacingLeft=4;spacingRight=4;overflow=hidden;rotatable=0;points=[[0,0.5],[1,0.5]];portConstraint=eastwest;strokeColor=default;" parent="12" vertex="1">
                    <mxGeometry y="340" width="240" height="20" as="geometry"/>
                </mxCell>
                <mxCell id="19" value="point *create_point(char *name, &lt;br&gt;&lt;span style=&quot;&quot;&gt;&#9;&lt;/span&gt;&lt;span style=&quot;&quot;&gt;&#9;&lt;/span&gt;&lt;span style=&quot;&quot;&gt;&#9;&lt;/span&gt;&lt;span style=&quot;&quot;&gt;&#9;&lt;/span&gt;&lt;span style=&quot;white-space: pre;&quot;&gt;&#9;&lt;/span&gt;&lt;span style=&quot;white-space: pre;&quot;&gt;&#9;&lt;/span&gt;&lt;span style=&quot;white-space: pre;&quot;&gt;&#9;&lt;span style=&quot;white-space: pre;&quot;&gt;&#9;&lt;/span&gt;&lt;/span&gt;point_type type, &lt;br&gt;&lt;span style=&quot;&quot;&gt;&#9;&lt;/span&gt;&lt;span style=&quot;&quot;&gt;&#9;&lt;/span&gt;&lt;span style=&quot;&quot;&gt;&#9;&lt;/span&gt;&lt;span style=&quot;&quot;&gt;&#9;&lt;/span&gt;&lt;span style=&quot;white-space: pre;&quot;&gt;&#9;&lt;/span&gt;&lt;span style=&quot;white-space: pre;&quot;&gt;&#9;&lt;/span&gt;&lt;span style=&quot;white-space: pre;&quot;&gt;&#9;&lt;/span&gt;&lt;span style=&quot;white-space: pre;&quot;&gt;&#9;&lt;/span&gt;int size);&lt;br&gt;void point_to_cjson(cJSON *root, point *p);" style="text;html=1;align=left;verticalAlign=middle;spacingLeft=4;spacingRight=4;overflow=hidden;rotatable=0;points=[[0,0.5],[1,0.5]];portConstraint=eastwest;strokeColor=default;" parent="12" vertex="1">
                    <mxGeometry y="360" width="240" height="60" as="geometry"/>
                </mxCell>
                <mxCell id="20" value="&amp;lt;&amp;lt;struct&amp;gt;&amp;gt;&lt;br&gt;&lt;b&gt;group&lt;/b&gt;" style="swimlane;fontStyle=0;align=center;verticalAlign=top;childLayout=stackLayout;horizontal=1;startSize=41;horizontalStack=0;resizeParent=1;resizeParentMax=0;resizeLast=0;collapsible=0;marginBottom=0;html=1;strokeColor=default;fillColor=none;" parent="1" vertex="1">
                    <mxGeometry x="340" y="10" width="240" height="300" as="geometry"/>
                </mxCell>
                <mxCell id="21" value="attributes" style="text;html=1;align=center;verticalAlign=middle;spacingLeft=4;spacingRight=4;overflow=hidden;rotatable=0;points=[[0,0.5],[1,0.5]];portConstraint=eastwest;strokeColor=default;" parent="20" vertex="1">
                    <mxGeometry y="41" width="240" height="20" as="geometry"/>
                </mxCell>
                <mxCell id="22" value="&lt;div&gt;*name: char&lt;/div&gt;&lt;div&gt;type: group_type&lt;/div&gt;&lt;div&gt;count: int&lt;/div&gt;&lt;div&gt;*points: point&lt;/div&gt;&lt;div&gt;*groups: TODO&lt;/div&gt;&lt;div&gt;*label: char&lt;/div&gt;&lt;div&gt;*desc: char&lt;/div&gt;&lt;div&gt;*detail: char&lt;/div&gt;&lt;div&gt;*notes: char&lt;/div&gt;&lt;div&gt;comments: TODO&lt;/div&gt;" style="text;html=1;align=left;verticalAlign=middle;spacingLeft=4;spacingRight=4;overflow=hidden;rotatable=0;points=[[0,0.5],[1,0.5]];portConstraint=eastwest;strokeColor=default;" parent="20" vertex="1">
                    <mxGeometry y="61" width="240" height="149" as="geometry"/>
                </mxCell>
                <mxCell id="23" value="" style="line;strokeWidth=1;align=left;verticalAlign=middle;spacingTop=-1;spacingLeft=3;spacingRight=3;rotatable=0;labelPosition=right;points=[];portConstraint=eastwest;strokeColor=default;" parent="20" vertex="1">
                    <mxGeometry y="210" width="240" as="geometry"/>
                </mxCell>
                <mxCell id="24" value="operations" style="text;html=1;align=center;verticalAlign=middle;spacingLeft=4;spacingRight=4;overflow=hidden;rotatable=0;points=[[0,0.5],[1,0.5]];portConstraint=eastwest;strokeColor=default;" parent="20" vertex="1">
                    <mxGeometry y="210" width="240" height="20" as="geometry"/>
                </mxCell>
                <mxCell id="25" value="group *create_group(char *name, &lt;br&gt;&lt;span style=&quot;&quot;&gt;&#9;&lt;/span&gt;&lt;span style=&quot;&quot;&gt;&#9;&lt;/span&gt;&lt;span style=&quot;&quot;&gt;&#9;&lt;/span&gt;&lt;span style=&quot;&quot;&gt;&#9;&lt;/span&gt;&lt;span style=&quot;&quot;&gt;&#9;&lt;/span&gt;&lt;span style=&quot;white-space: pre;&quot;&gt;&#9;&lt;/span&gt;&lt;span style=&quot;white-space: pre;&quot;&gt;&#9;&lt;/span&gt;&lt;span style=&quot;white-space: pre;&quot;&gt;&#9;&lt;/span&gt;&lt;span style=&quot;white-space: pre;&quot;&gt;&#9;&lt;/span&gt;&lt;span style=&quot;white-space: pre;&quot;&gt;&#9;&lt;/span&gt;point_type type);&lt;br&gt;void group_to_cjson(cJSON *root, &lt;br&gt;&lt;span style=&quot;white-space: pre;&quot;&gt;&#9;&lt;/span&gt;&lt;span style=&quot;white-space: pre;&quot;&gt;&#9;&lt;/span&gt;&lt;span style=&quot;white-space: pre;&quot;&gt;&#9;&lt;/span&gt;&lt;span style=&quot;white-space: pre;&quot;&gt;&#9;&lt;/span&gt;&lt;span style=&quot;white-space: pre;&quot;&gt;&#9;&lt;/span&gt;group *g);" style="text;html=1;align=left;verticalAlign=middle;spacingLeft=4;spacingRight=4;overflow=hidden;rotatable=0;points=[[0,0.5],[1,0.5]];portConstraint=eastwest;strokeColor=default;" parent="20" vertex="1">
                    <mxGeometry y="230" width="240" height="70" as="geometry"/>
                </mxCell>
                <mxCell id="26" value="&amp;lt;&amp;lt;struct&amp;gt;&amp;gt;&lt;br&gt;&lt;b&gt;model&lt;/b&gt;" style="swimlane;fontStyle=0;align=center;verticalAlign=top;childLayout=stackLayout;horizontal=1;startSize=41;horizontalStack=0;resizeParent=1;resizeParentMax=0;resizeLast=0;collapsible=0;marginBottom=0;html=1;strokeColor=default;fillColor=none;" parent="1" vertex="1">
                    <mxGeometry x="30" y="10" width="240" height="280" as="geometry"/>
                </mxCell>
                <mxCell id="27" value="attributes" style="text;html=1;align=center;verticalAlign=middle;spacingLeft=4;spacingRight=4;overflow=hidden;rotatable=0;points=[[0,0.5],[1,0.5]];portConstraint=eastwest;strokeColor=default;" parent="26" vertex="1">
                    <mxGeometry y="41" width="240" height="20" as="geometry"/>
                </mxCell>
                <mxCell id="28" value="&lt;div&gt;id: uint16_t&lt;/div&gt;&lt;div&gt;*group: group&lt;/div&gt;&lt;div&gt;count: uint16_t&lt;/div&gt;&lt;div&gt;*label: TODO&lt;/div&gt;&lt;div&gt;*desc: TODO&lt;/div&gt;&lt;div&gt;*detail: TODO&lt;/div&gt;&lt;div&gt;*notes: TODO&lt;/div&gt;&lt;div&gt;comments: TODO&lt;/div&gt;&lt;div&gt;*next: model&lt;/div&gt;" style="text;html=1;align=left;verticalAlign=middle;spacingLeft=4;spacingRight=4;overflow=hidden;rotatable=0;points=[[0,0.5],[1,0.5]];portConstraint=eastwest;strokeColor=default;" parent="26" vertex="1">
                    <mxGeometry y="61" width="240" height="139" as="geometry"/>
                </mxCell>
                <mxCell id="29" value="" style="line;strokeWidth=1;align=left;verticalAlign=middle;spacingTop=-1;spacingLeft=3;spacingRight=3;rotatable=0;labelPosition=right;points=[];portConstraint=eastwest;strokeColor=default;" parent="26" vertex="1">
                    <mxGeometry y="200" width="240" as="geometry"/>
                </mxCell>
                <mxCell id="30" value="operations" style="text;html=1;align=center;verticalAlign=middle;spacingLeft=4;spacingRight=4;overflow=hidden;rotatable=0;points=[[0,0.5],[1,0.5]];portConstraint=eastwest;strokeColor=default;" parent="26" vertex="1">
                    <mxGeometry y="200" width="240" height="20" as="geometry"/>
                </mxCell>
                <mxCell id="31" value="&lt;div&gt;model *create_model(uint16_t id);&lt;/div&gt;&lt;div&gt;void model_to_cjson(cJSON *root,&lt;/div&gt;&lt;div&gt;&lt;span style=&quot;&quot;&gt;&lt;span style=&quot;white-space: pre;&quot;&gt;&lt;span style=&quot;white-space: pre;&quot;&gt;&#9;&lt;/span&gt;&lt;span style=&quot;white-space: pre;&quot;&gt;&#9;&lt;/span&gt;&lt;span style=&quot;white-space: pre;&quot;&gt;&#9;&lt;/span&gt;&lt;/span&gt;model *m,&lt;/span&gt;&lt;/div&gt;&lt;div&gt;&lt;span style=&quot;&quot;&gt;&lt;span style=&quot;white-space: pre;&quot;&gt;&#9;&lt;/span&gt;&lt;span style=&quot;white-space: pre;&quot;&gt;&#9;&lt;/span&gt;&lt;span style=&quot;white-space: pre;&quot;&gt;&#9;&lt;/span&gt;bool summary);&lt;/span&gt;&lt;/div&gt;&lt;div&gt;&lt;br&gt;&lt;/div&gt;" style="text;html=1;align=left;verticalAlign=middle;spacingLeft=4;spacingRight=4;overflow=hidden;rotatable=0;points=[[0,0.5],[1,0.5]];portConstraint=eastwest;strokeColor=default;" parent="26" vertex="1">
                    <mxGeometry y="220" width="240" height="60" as="geometry"/>
                </mxCell>
                <mxCell id="66" style="edgeStyle=none;html=1;exitX=0.5;exitY=0;exitDx=0;exitDy=0;entryX=0.503;entryY=1.033;entryDx=0;entryDy=0;entryPerimeter=0;startArrow=ERmandOne;startFill=0;endArrow=ERoneToMany;endFill=0;strokeColor=default;" parent="1" source="32" target="31" edge="1">
                    <mxGeometry relative="1" as="geometry"/>
                </mxCell>
                <mxCell id="32" value="&amp;lt;&amp;lt;struct&amp;gt;&amp;gt;&lt;br&gt;&lt;b&gt;SunsPec&lt;/b&gt;" style="swimlane;fontStyle=0;align=center;verticalAlign=top;childLayout=stackLayout;horizontal=1;startSize=41;horizontalStack=0;resizeParent=1;resizeParentMax=0;resizeLast=0;collapsible=0;marginBottom=0;html=1;strokeColor=default;fillColor=none;" parent="1" vertex="1">
                    <mxGeometry x="30" y="360" width="240" height="400" as="geometry"/>
                </mxCell>
                <mxCell id="33" value="attributes" style="text;html=1;align=center;verticalAlign=middle;spacingLeft=4;spacingRight=4;overflow=hidden;rotatable=0;points=[[0,0.5],[1,0.5]];portConstraint=eastwest;strokeColor=default;" parent="32" vertex="1">
                    <mxGeometry y="41" width="240" height="20" as="geometry"/>
                </mxCell>
                <mxCell id="34" value="*first: model" style="text;html=1;align=left;verticalAlign=middle;spacingLeft=4;spacingRight=4;overflow=hidden;rotatable=0;points=[[0,0.5],[1,0.5]];portConstraint=eastwest;strokeColor=default;" parent="32" vertex="1">
                    <mxGeometry y="61" width="240" height="19" as="geometry"/>
                </mxCell>
                <mxCell id="35" value="" style="line;strokeWidth=1;align=left;verticalAlign=middle;spacingTop=-1;spacingLeft=3;spacingRight=3;rotatable=0;labelPosition=right;points=[];portConstraint=eastwest;strokeColor=default;" parent="32" vertex="1">
                    <mxGeometry y="80" width="240" as="geometry"/>
                </mxCell>
                <mxCell id="36" value="operations" style="text;html=1;align=center;verticalAlign=middle;spacingLeft=4;spacingRight=4;overflow=hidden;rotatable=0;points=[[0,0.5],[1,0.5]];portConstraint=eastwest;strokeColor=default;" parent="32" vertex="1">
                    <mxGeometry y="80" width="240" height="20" as="geometry"/>
                </mxCell>
                <mxCell id="37" value="&lt;div&gt;SunSpec *init_sunspec();&lt;/div&gt;&lt;div&gt;&lt;span style=&quot;background-color: initial;&quot;&gt;SunSpec *get_sunspec();&lt;/span&gt;&lt;/div&gt;&lt;div&gt;&lt;div&gt;void add_model(SunSpec *sunspec,&amp;nbsp;&lt;/div&gt;&lt;div&gt;&amp;nbsp; &amp;nbsp; &amp;nbsp; &amp;nbsp; &amp;nbsp; &amp;nbsp; &amp;nbsp; &amp;nbsp; &amp;nbsp; model *m);&lt;/div&gt;&lt;/div&gt;&lt;div&gt;&lt;span style=&quot;background-color: initial;&quot;&gt;void sunspec_to_cjson(cJSON *root,&lt;/span&gt;&lt;br&gt;&lt;/div&gt;&lt;div&gt;&lt;span style=&quot;&quot;&gt;&#9;&lt;/span&gt;&lt;span style=&quot;&quot;&gt;&#9;&lt;/span&gt;&lt;span style=&quot;&quot;&gt;&#9;&lt;/span&gt;&lt;span style=&quot;&quot;&gt;&#9;&lt;/span&gt;&lt;span style=&quot;white-space: pre;&quot;&gt;&#9;&lt;/span&gt;&lt;span style=&quot;white-space: pre;&quot;&gt;&#9;&lt;/span&gt;SunSpec *suns,&lt;/div&gt;&lt;div&gt;&lt;span style=&quot;&quot;&gt;&#9;&lt;/span&gt;&lt;span style=&quot;&quot;&gt;&#9;&lt;/span&gt;&lt;span style=&quot;&quot;&gt;&#9;&lt;/span&gt;&lt;span style=&quot;&quot;&gt;&#9;&lt;/span&gt;&lt;span style=&quot;white-space: pre;&quot;&gt;&#9;&lt;/span&gt;&lt;span style=&quot;white-space: pre;&quot;&gt;&#9;&lt;/span&gt;bool summary);&lt;/div&gt;&lt;div&gt;&lt;div&gt;bool get_model_cjson_by_id(cJSON *root,&lt;/div&gt;&lt;div&gt;&lt;span style=&quot;&quot;&gt;&#9;&lt;/span&gt;&lt;span style=&quot;&quot;&gt;&#9;&lt;/span&gt;&lt;span style=&quot;&quot;&gt;&#9;&lt;/span&gt;&lt;span style=&quot;white-space: pre;&quot;&gt;&#9;&lt;/span&gt;&lt;span style=&quot;white-space: pre;&quot;&gt;&#9;&lt;/span&gt;SunSpec *suns,&lt;/div&gt;&lt;div&gt;&lt;span style=&quot;&quot;&gt;&#9;&lt;/span&gt;&lt;span style=&quot;&quot;&gt;&#9;&lt;/span&gt;&lt;span style=&quot;&quot;&gt;&#9;&lt;/span&gt;&lt;span style=&quot;white-space: pre;&quot;&gt;&#9;&lt;/span&gt;&lt;span style=&quot;white-space: pre;&quot;&gt;&#9;&lt;/span&gt;uint16_t model_id);&lt;/div&gt;&lt;div&gt;bool get_model_cjson_points_by_name(&lt;/div&gt;&lt;div&gt;&amp;nbsp; &amp;nbsp; &amp;nbsp; &amp;nbsp; &amp;nbsp; &amp;nbsp; &amp;nbsp; &amp;nbsp;&amp;nbsp;&lt;span style=&quot;&quot;&gt;&#9;&lt;/span&gt;cJSON *root,&amp;nbsp;&lt;/div&gt;&lt;div&gt;&amp;nbsp; &amp;nbsp; &amp;nbsp; &amp;nbsp; &amp;nbsp; &amp;nbsp; &amp;nbsp; &amp;nbsp;&amp;nbsp;&lt;span style=&quot;&quot;&gt;&#9;&lt;/span&gt;SunSpec *suns,&amp;nbsp;&lt;/div&gt;&lt;div&gt;&amp;nbsp; &amp;nbsp; &amp;nbsp; &amp;nbsp;&amp;nbsp;&lt;span style=&quot;&quot;&gt;&#9;&lt;/span&gt;&amp;nbsp; &amp;nbsp; &amp;nbsp; &amp;nbsp; uint16_t model_id,&lt;/div&gt;&lt;div&gt;&lt;span style=&quot;background-color: initial;&quot;&gt;&#9;&lt;/span&gt;&lt;span style=&quot;background-color: initial;&quot;&gt;&amp;nbsp; &amp;nbsp; &amp;nbsp; &amp;nbsp; &amp;nbsp; &amp;nbsp; &amp;nbsp; &amp;nbsp; char *point_name_csv);&lt;/span&gt;&lt;/div&gt;&lt;div&gt;bool patch_points(&lt;/div&gt;&lt;div&gt;&lt;span style=&quot;&quot;&gt;&#9;&lt;/span&gt;&amp;nbsp; &amp;nbsp; &amp;nbsp; &amp;nbsp; &amp;nbsp; &amp;nbsp; &amp;nbsp; &amp;nbsp; cJSON *array_patch_points,&amp;nbsp;&lt;/div&gt;&lt;div&gt;&lt;span style=&quot;&quot;&gt;&#9;&lt;/span&gt;&amp;nbsp; &amp;nbsp; &amp;nbsp; &amp;nbsp; &amp;nbsp; &amp;nbsp; &amp;nbsp; &amp;nbsp; SunSpec *suns,&amp;nbsp;&lt;/div&gt;&lt;div&gt;&lt;span style=&quot;&quot;&gt;&#9;&lt;/span&gt;&amp;nbsp; &amp;nbsp; &amp;nbsp; &amp;nbsp; &amp;nbsp; &amp;nbsp; &amp;nbsp; &amp;nbsp; uint16_t model_id,&amp;nbsp;&lt;/div&gt;&lt;div&gt;&lt;span style=&quot;&quot;&gt;&#9;&lt;/span&gt;&amp;nbsp; &amp;nbsp; &amp;nbsp; &amp;nbsp; &amp;nbsp; &amp;nbsp; &amp;nbsp; &amp;nbsp; cJSON *error_response);&lt;/div&gt;&lt;/div&gt;&lt;div&gt;&lt;br&gt;&lt;/div&gt;" style="text;html=1;align=left;verticalAlign=middle;spacingLeft=4;spacingRight=4;overflow=hidden;rotatable=0;points=[[0,0.5],[1,0.5]];portConstraint=eastwest;strokeColor=default;" parent="32" vertex="1">
                    <mxGeometry y="100" width="240" height="300" as="geometry"/>
                </mxCell>
                <mxCell id="38" value="&amp;lt;&amp;lt;enumeration&amp;gt;&amp;gt;&lt;br&gt;&lt;b&gt;point_type&lt;/b&gt;" style="swimlane;fontStyle=0;align=center;verticalAlign=top;childLayout=stackLayout;horizontal=1;startSize=41;horizontalStack=0;resizeParent=1;resizeParentMax=0;resizeLast=0;collapsible=0;marginBottom=0;html=1;strokeColor=default;fillColor=none;" parent="1" vertex="1">
                    <mxGeometry x="920" y="70" width="230" height="450" as="geometry"/>
                </mxCell>
                <mxCell id="40" value="&lt;div&gt;pt_int16&lt;/div&gt;&lt;div&gt;pt_int32&lt;/div&gt;&lt;div&gt;pt_int64&lt;/div&gt;&lt;div&gt;pt_raw16&lt;/div&gt;&lt;div&gt;pt_uint16&lt;/div&gt;&lt;div&gt;pt_uint32&lt;/div&gt;&lt;div&gt;pt_uint64&lt;/div&gt;&lt;div&gt;pt_acc16&lt;/div&gt;&lt;div&gt;pt_acc32&lt;/div&gt;&lt;div&gt;pt_acc64&lt;/div&gt;&lt;div&gt;pt_bitfield16&lt;/div&gt;&lt;div&gt;pt_bitfield32&lt;/div&gt;&lt;div&gt;pt_bitfield64&lt;/div&gt;&lt;div&gt;pt_enum16&lt;/div&gt;&lt;div&gt;pt_enum32&lt;/div&gt;&lt;div&gt;pt_float32&lt;/div&gt;&lt;div&gt;pt_float64&lt;/div&gt;&lt;div&gt;pt_string&lt;/div&gt;&lt;div&gt;pt_sf&lt;/div&gt;&lt;div&gt;pt_pad&lt;/div&gt;&lt;div&gt;pt_ipaddr&lt;/div&gt;&lt;div&gt;pt_ipv6addr&lt;/div&gt;&lt;div&gt;pt_eui48&lt;/div&gt;&lt;div&gt;pt_sunssf&lt;/div&gt;&lt;div&gt;pt_count&lt;/div&gt;" style="text;html=1;align=left;verticalAlign=middle;spacingLeft=4;spacingRight=4;overflow=hidden;rotatable=0;points=[[0,0.5],[1,0.5]];portConstraint=eastwest;strokeColor=default;" parent="38" vertex="1">
                    <mxGeometry y="41" width="230" height="369" as="geometry"/>
                </mxCell>
                <mxCell id="41" value="" style="line;strokeWidth=1;align=left;verticalAlign=middle;spacingTop=-1;spacingLeft=3;spacingRight=3;rotatable=0;labelPosition=right;points=[];portConstraint=eastwest;strokeColor=default;" parent="38" vertex="1">
                    <mxGeometry y="410" width="230" as="geometry"/>
                </mxCell>
                <mxCell id="42" value="operations" style="text;html=1;align=center;verticalAlign=middle;spacingLeft=4;spacingRight=4;overflow=hidden;rotatable=0;points=[[0,0.5],[1,0.5]];portConstraint=eastwest;strokeColor=default;" parent="38" vertex="1">
                    <mxGeometry y="410" width="230" height="20" as="geometry"/>
                </mxCell>
                <mxCell id="43" value="char *get_point_type_name(point_type);" style="text;html=1;align=left;verticalAlign=middle;spacingLeft=4;spacingRight=4;overflow=hidden;rotatable=0;points=[[0,0.5],[1,0.5]];portConstraint=eastwest;strokeColor=default;" parent="38" vertex="1">
                    <mxGeometry y="430" width="230" height="20" as="geometry"/>
                </mxCell>
                <mxCell id="44" value="&amp;lt;&amp;lt;enumeration&amp;gt;&amp;gt;&lt;br&gt;&lt;b&gt;access_type&lt;/b&gt;" style="swimlane;fontStyle=0;align=center;verticalAlign=top;childLayout=stackLayout;horizontal=1;startSize=41;horizontalStack=0;resizeParent=1;resizeParentMax=0;resizeLast=0;collapsible=0;marginBottom=0;html=1;strokeColor=default;fillColor=none;" parent="1" vertex="1">
                    <mxGeometry x="650" y="480" width="230" height="140" as="geometry"/>
                </mxCell>
                <mxCell id="45" value="&lt;div&gt;at_R&lt;/div&gt;&lt;div&gt;at_RW&lt;/div&gt;" style="text;html=1;align=left;verticalAlign=middle;spacingLeft=4;spacingRight=4;overflow=hidden;rotatable=0;points=[[0,0.5],[1,0.5]];portConstraint=eastwest;strokeColor=default;" parent="44" vertex="1">
                    <mxGeometry y="41" width="230" height="39" as="geometry"/>
                </mxCell>
                <mxCell id="46" value="" style="line;strokeWidth=1;align=left;verticalAlign=middle;spacingTop=-1;spacingLeft=3;spacingRight=3;rotatable=0;labelPosition=right;points=[];portConstraint=eastwest;strokeColor=default;" parent="44" vertex="1">
                    <mxGeometry y="80" width="230" as="geometry"/>
                </mxCell>
                <mxCell id="47" value="operations" style="text;html=1;align=center;verticalAlign=middle;spacingLeft=4;spacingRight=4;overflow=hidden;rotatable=0;points=[[0,0.5],[1,0.5]];portConstraint=eastwest;strokeColor=default;" parent="44" vertex="1">
                    <mxGeometry y="80" width="230" height="20" as="geometry"/>
                </mxCell>
                <mxCell id="48" value="char *get_access_type_name(&lt;br&gt;&lt;span style=&quot;white-space: pre;&quot;&gt;&#9;&lt;/span&gt;&lt;span style=&quot;white-space: pre;&quot;&gt;&#9;&lt;/span&gt;&lt;span style=&quot;white-space: pre;&quot;&gt;&#9;&lt;/span&gt;&lt;span style=&quot;white-space: pre;&quot;&gt;&#9;&lt;/span&gt;&lt;span style=&quot;white-space: pre;&quot;&gt;&#9;&lt;/span&gt;access_type);" style="text;html=1;align=left;verticalAlign=middle;spacingLeft=4;spacingRight=4;overflow=hidden;rotatable=0;points=[[0,0.5],[1,0.5]];portConstraint=eastwest;strokeColor=default;" parent="44" vertex="1">
                    <mxGeometry y="100" width="230" height="40" as="geometry"/>
                </mxCell>
                <mxCell id="50" value="&amp;lt;&amp;lt;enumeration&amp;gt;&amp;gt;&lt;br&gt;&lt;b&gt;mandatory_type&lt;/b&gt;" style="swimlane;fontStyle=0;align=center;verticalAlign=top;childLayout=stackLayout;horizontal=1;startSize=41;horizontalStack=0;resizeParent=1;resizeParentMax=0;resizeLast=0;collapsible=0;marginBottom=0;html=1;strokeColor=default;fillColor=none;" parent="1" vertex="1">
                    <mxGeometry x="910" y="600" width="230" height="140" as="geometry"/>
                </mxCell>
                <mxCell id="51" value="&lt;div&gt;mt_M&lt;/div&gt;&lt;div&gt;mt_O&lt;/div&gt;" style="text;html=1;align=left;verticalAlign=middle;spacingLeft=4;spacingRight=4;overflow=hidden;rotatable=0;points=[[0,0.5],[1,0.5]];portConstraint=eastwest;strokeColor=default;" parent="50" vertex="1">
                    <mxGeometry y="41" width="230" height="39" as="geometry"/>
                </mxCell>
                <mxCell id="52" value="" style="line;strokeWidth=1;align=left;verticalAlign=middle;spacingTop=-1;spacingLeft=3;spacingRight=3;rotatable=0;labelPosition=right;points=[];portConstraint=eastwest;strokeColor=default;" parent="50" vertex="1">
                    <mxGeometry y="80" width="230" as="geometry"/>
                </mxCell>
                <mxCell id="53" value="operations" style="text;html=1;align=center;verticalAlign=middle;spacingLeft=4;spacingRight=4;overflow=hidden;rotatable=0;points=[[0,0.5],[1,0.5]];portConstraint=eastwest;strokeColor=default;" parent="50" vertex="1">
                    <mxGeometry y="80" width="230" height="20" as="geometry"/>
                </mxCell>
                <mxCell id="54" value="char *get_mandatory_type_name(&lt;br&gt;&lt;span style=&quot;white-space: pre;&quot;&gt;&#9;&lt;/span&gt;&lt;span style=&quot;white-space: pre;&quot;&gt;&#9;&lt;/span&gt;&lt;span style=&quot;white-space: pre;&quot;&gt;&#9;&lt;/span&gt;&lt;span style=&quot;white-space: pre;&quot;&gt;&#9;&lt;/span&gt;mandatory_type);" style="text;html=1;align=left;verticalAlign=middle;spacingLeft=4;spacingRight=4;overflow=hidden;rotatable=0;points=[[0,0.5],[1,0.5]];portConstraint=eastwest;strokeColor=default;" parent="50" vertex="1">
                    <mxGeometry y="100" width="230" height="40" as="geometry"/>
                </mxCell>
                <mxCell id="55" value="&amp;lt;&amp;lt;enumeration&amp;gt;&amp;gt;&lt;br&gt;&lt;b&gt;static_type&lt;/b&gt;" style="swimlane;fontStyle=0;align=center;verticalAlign=top;childLayout=stackLayout;horizontal=1;startSize=41;horizontalStack=0;resizeParent=1;resizeParentMax=0;resizeLast=0;collapsible=0;marginBottom=0;html=1;strokeColor=default;fillColor=none;" parent="1" vertex="1">
                    <mxGeometry x="650" y="680" width="230" height="120" as="geometry"/>
                </mxCell>
                <mxCell id="56" value="&lt;div&gt;st_D&lt;/div&gt;&lt;div&gt;st_S&lt;/div&gt;" style="text;html=1;align=left;verticalAlign=middle;spacingLeft=4;spacingRight=4;overflow=hidden;rotatable=0;points=[[0,0.5],[1,0.5]];portConstraint=eastwest;strokeColor=default;" parent="55" vertex="1">
                    <mxGeometry y="41" width="230" height="39" as="geometry"/>
                </mxCell>
                <mxCell id="57" value="" style="line;strokeWidth=1;align=left;verticalAlign=middle;spacingTop=-1;spacingLeft=3;spacingRight=3;rotatable=0;labelPosition=right;points=[];portConstraint=eastwest;strokeColor=default;" parent="55" vertex="1">
                    <mxGeometry y="80" width="230" as="geometry"/>
                </mxCell>
                <mxCell id="58" value="operations" style="text;html=1;align=center;verticalAlign=middle;spacingLeft=4;spacingRight=4;overflow=hidden;rotatable=0;points=[[0,0.5],[1,0.5]];portConstraint=eastwest;strokeColor=default;" parent="55" vertex="1">
                    <mxGeometry y="80" width="230" height="20" as="geometry"/>
                </mxCell>
                <mxCell id="59" value="char *get_static_type_name(static_type);" style="text;html=1;align=left;verticalAlign=middle;spacingLeft=4;spacingRight=4;overflow=hidden;rotatable=0;points=[[0,0.5],[1,0.5]];portConstraint=eastwest;strokeColor=default;" parent="55" vertex="1">
                    <mxGeometry y="100" width="230" height="20" as="geometry"/>
                </mxCell>
                <mxCell id="60" value="&amp;lt;&amp;lt;enumeration&amp;gt;&amp;gt;&lt;br&gt;&lt;b&gt;group_type&lt;/b&gt;" style="swimlane;fontStyle=0;align=center;verticalAlign=top;childLayout=stackLayout;horizontal=1;startSize=41;horizontalStack=0;resizeParent=1;resizeParentMax=0;resizeLast=0;collapsible=0;marginBottom=0;html=1;strokeColor=default;fillColor=none;" parent="1" vertex="1">
                    <mxGeometry x="650" y="10" width="230" height="140" as="geometry"/>
                </mxCell>
                <mxCell id="61" value="&lt;div&gt;gt_group&lt;/div&gt;&lt;div&gt;gt_sync&lt;/div&gt;" style="text;html=1;align=left;verticalAlign=middle;spacingLeft=4;spacingRight=4;overflow=hidden;rotatable=0;points=[[0,0.5],[1,0.5]];portConstraint=eastwest;strokeColor=default;" parent="60" vertex="1">
                    <mxGeometry y="41" width="230" height="39" as="geometry"/>
                </mxCell>
                <mxCell id="62" value="" style="line;strokeWidth=1;align=left;verticalAlign=middle;spacingTop=-1;spacingLeft=3;spacingRight=3;rotatable=0;labelPosition=right;points=[];portConstraint=eastwest;strokeColor=default;" parent="60" vertex="1">
                    <mxGeometry y="80" width="230" as="geometry"/>
                </mxCell>
                <mxCell id="63" value="operations" style="text;html=1;align=center;verticalAlign=middle;spacingLeft=4;spacingRight=4;overflow=hidden;rotatable=0;points=[[0,0.5],[1,0.5]];portConstraint=eastwest;strokeColor=default;" parent="60" vertex="1">
                    <mxGeometry y="80" width="230" height="20" as="geometry"/>
                </mxCell>
                <mxCell id="64" value="char *get_group_type_name(&lt;br&gt;&lt;span style=&quot;white-space: pre;&quot;&gt;&#9;&lt;/span&gt;&lt;span style=&quot;white-space: pre;&quot;&gt;&#9;&lt;/span&gt;&lt;span style=&quot;white-space: pre;&quot;&gt;&#9;&lt;/span&gt;&lt;span style=&quot;white-space: pre;&quot;&gt;&#9;&lt;/span&gt;&lt;span style=&quot;white-space: pre;&quot;&gt;&#9;&lt;/span&gt;group_type);" style="text;html=1;align=left;verticalAlign=middle;spacingLeft=4;spacingRight=4;overflow=hidden;rotatable=0;points=[[0,0.5],[1,0.5]];portConstraint=eastwest;strokeColor=default;" parent="60" vertex="1">
                    <mxGeometry y="100" width="230" height="40" as="geometry"/>
                </mxCell>
                <mxCell id="68" style="edgeStyle=elbowEdgeStyle;shape=connector;rounded=1;html=1;exitX=1;exitY=0.5;exitDx=0;exitDy=0;labelBackgroundColor=default;fontFamily=Helvetica;fontSize=11;fontColor=default;startArrow=ERmandOne;startFill=0;endArrow=ERoneToMany;endFill=0;elbow=vertical;strokeColor=default;" parent="1" source="28" target="22" edge="1">
                    <mxGeometry relative="1" as="geometry"/>
                </mxCell>
                <mxCell id="70" style="edgeStyle=orthogonalEdgeStyle;shape=connector;rounded=0;html=1;exitX=0;exitY=0.5;exitDx=0;exitDy=0;entryX=1.008;entryY=0.636;entryDx=0;entryDy=0;entryPerimeter=0;labelBackgroundColor=default;fontFamily=Helvetica;fontSize=11;fontColor=default;startArrow=ERone;startFill=0;endArrow=ERzeroToMany;endFill=0;strokeColor=default;" parent="1" source="51" target="14" edge="1">
                    <mxGeometry relative="1" as="geometry">
                        <Array as="points">
                            <mxPoint x="630" y="661"/>
                            <mxPoint x="630" y="618"/>
                        </Array>
                    </mxGeometry>
                </mxCell>
                <mxCell id="71" style="edgeStyle=orthogonalEdgeStyle;shape=connector;rounded=0;html=1;exitX=0;exitY=0.5;exitDx=0;exitDy=0;entryX=1.001;entryY=0.777;entryDx=0;entryDy=0;entryPerimeter=0;labelBackgroundColor=default;fontFamily=Helvetica;fontSize=11;fontColor=default;startArrow=ERone;startFill=0;endArrow=ERzeroToMany;endFill=0;strokeColor=default;" parent="1" source="56" target="14" edge="1">
                    <mxGeometry relative="1" as="geometry"/>
                </mxCell>
                <mxCell id="72" style="edgeStyle=orthogonalEdgeStyle;shape=connector;rounded=0;html=1;exitX=0;exitY=0.5;exitDx=0;exitDy=0;entryX=1.012;entryY=0.259;entryDx=0;entryDy=0;entryPerimeter=0;labelBackgroundColor=default;fontFamily=Helvetica;fontSize=11;fontColor=default;startArrow=ERone;startFill=0;endArrow=ERzeroToMany;endFill=0;strokeColor=default;" parent="1" source="45" target="14" edge="1">
                    <mxGeometry relative="1" as="geometry"/>
                </mxCell>
                <mxCell id="73" style="edgeStyle=orthogonalEdgeStyle;shape=connector;rounded=0;html=1;exitX=0;exitY=0.5;exitDx=0;exitDy=0;entryX=0.997;entryY=0.007;entryDx=0;entryDy=0;entryPerimeter=0;labelBackgroundColor=default;fontFamily=Helvetica;fontSize=11;fontColor=default;startArrow=ERone;startFill=0;endArrow=ERzeroToMany;endFill=0;strokeColor=default;" parent="1" source="40" target="14" edge="1">
                    <mxGeometry relative="1" as="geometry">
                        <Array as="points">
                            <mxPoint x="720" y="296"/>
                            <mxPoint x="720" y="443"/>
                        </Array>
                    </mxGeometry>
                </mxCell>
                <mxCell id="74" style="edgeStyle=orthogonalEdgeStyle;shape=connector;rounded=0;html=1;exitX=0;exitY=0.5;exitDx=0;exitDy=0;entryX=1;entryY=0.5;entryDx=0;entryDy=0;labelBackgroundColor=default;fontFamily=Helvetica;fontSize=11;fontColor=default;startArrow=ERone;startFill=0;endArrow=ERzeroToMany;endFill=0;strokeColor=default;" parent="1" source="61" target="22" edge="1">
                    <mxGeometry relative="1" as="geometry"/>
                </mxCell>
            </root>
        </mxGraphModel>
    </diagram>
</mxfile>